<?xml version="1.0" encoding="UTF-8"?>
<svg xmlns="http://www.w3.org/2000/svg" xmlns:xlink="http://www.w3.org/1999/xlink" width="33px" height="32px" viewBox="0 0 32 32" version="1.1">
<g id="surface1">
<path style=" stroke:none;fill-rule:nonzero;fill:rgb(76.862745%,91.372549%,98.039216%);fill-opacity:1;" d="M 30.761719 8.792969 C 30.472656 7.28125 29.03125 5.152344 28.929688 4.980469 C 26.515625 0.914062 21.226562 2.015625 16.300781 2.015625 C 12.160156 2.015625 7.234375 2.0625 4.996094 3.621094 C 1.867188 5.800781 1.910156 8.960938 1.695312 12.695312 C 1.445312 16.949219 1.640625 23.738281 4.277344 27.234375 C 6.542969 30.238281 9.867188 30.476562 13.371094 30.550781 C 15.449219 30.597656 18.117188 30.65625 20.195312 30.65625 C 22.597656 30.65625 24.890625 31.175781 27.0625 28.917969 C 29.578125 26.300781 29.277344 23.863281 29.785156 16.90625 C 29.980469 14.210938 31.265625 11.441406 30.761719 8.792969 Z M 30.761719 8.792969 "/>
<path style=" stroke:none;fill-rule:nonzero;fill:rgb(100%,100%,100%);fill-opacity:1;" d="M 24.617188 4.914062 C 24.617188 4.914062 18.21875 3.558594 16.085938 3.519531 C 14.117188 3.484375 8.769531 3.410156 7.613281 4.613281 C 6.261719 6.019531 7.046875 13.621094 6.992188 16.621094 C 6.941406 19.484375 7.792969 28.074219 7.792969 28.074219 L 17.410156 28.246094 L 24.320312 21.414062 C 24.320312 21.414062 25.21875 18.964844 25.273438 15.875 C 25.292969 14.839844 24.617188 4.914062 24.617188 4.914062 Z M 24.617188 4.914062 "/>
<path style=" stroke:none;fill-rule:nonzero;fill:rgb(52.941176%,78.823529%,100%);fill-opacity:1;" d="M 17.132812 21.730469 C 16.019531 22.972656 17.410156 28.246094 17.410156 28.246094 L 23.3125 21.648438 C 23.3125 21.648438 18.246094 20.488281 17.132812 21.730469 Z M 17.132812 21.730469 "/>
<path style=" stroke:none;fill-rule:nonzero;fill:rgb(100%,33.72549%,0%);fill-opacity:1;" d="M 16.402344 7.460938 C 15.5 6.5 12.128906 6.445312 11.191406 7.375 C 10.363281 8.195312 10.304688 11.25 11.105469 12.101562 C 12.011719 13.0625 15.378906 13.117188 16.320312 12.191406 C 17.148438 11.367188 17.203125 8.3125 16.402344 7.460938 Z M 16.402344 7.460938 "/>
<path style=" stroke:none;fill-rule:nonzero;fill:rgb(0%,0%,0%);fill-opacity:1;" d="M 31.414062 13.855469 C 31.417969 13.300781 31.40625 12.746094 31.402344 12.1875 C 31.394531 10.578125 31.390625 8.964844 31.367188 7.355469 C 31.34375 5.699219 31.324219 4.136719 30.367188 2.722656 C 29.515625 1.460938 28.136719 0.46875 26.640625 0.257812 C 25 0.0273438 23.257812 0.214844 21.605469 0.207031 C 18.015625 0.191406 14.425781 0.0078125 10.832031 0.0859375 C 9.191406 0.125 7.554688 0.207031 5.914062 0.300781 C 4.480469 0.386719 3.105469 0.992188 2.089844 2.042969 C 0.882812 3.292969 0.652344 4.78125 0.582031 6.464844 C 0.5 8.28125 0.480469 10.109375 0.492188 11.929688 C 0.507812 14.710938 0.597656 17.488281 0.65625 20.269531 C 0.695312 22.101562 0.679688 23.933594 0.675781 25.761719 C 0.671875 26.871094 0.832031 27.890625 1.382812 28.875 C 2.164062 30.269531 3.550781 31.347656 5.089844 31.6875 C 6.375 31.972656 7.78125 31.808594 9.078125 31.796875 C 10.382812 31.785156 11.671875 31.859375 12.972656 31.910156 C 14.714844 31.980469 16.449219 31.902344 18.1875 31.8125 C 19.984375 31.714844 21.769531 31.742188 23.566406 31.765625 C 24.980469 31.78125 26.503906 31.863281 27.839844 31.304688 C 29.328125 30.6875 30.433594 29.371094 30.898438 27.808594 C 31.378906 26.210938 31.21875 24.363281 31.265625 22.707031 C 31.34375 19.757812 31.394531 16.804688 31.414062 13.855469 Z M 30.332031 19.371094 C 30.292969 21.054688 30.222656 22.738281 30.140625 24.421875 C 30.066406 25.96875 30.078125 27.535156 29.109375 28.816406 C 28.273438 29.921875 27.03125 30.410156 25.699219 30.433594 C 22.25 30.503906 18.800781 30.460938 15.355469 30.550781 C 12.363281 30.628906 9.332031 30.71875 6.347656 30.539062 C 4.011719 30.398438 2.074219 28.4375 1.855469 26.039062 C 1.546875 22.660156 1.566406 19.257812 1.550781 15.863281 C 1.542969 14.03125 1.597656 12.21875 1.6875 10.386719 C 1.765625 8.832031 1.742188 7.269531 1.777344 5.710938 C 1.808594 4.339844 2.351562 3.136719 3.433594 2.292969 C 4.566406 1.410156 5.851562 1.320312 7.210938 1.191406 C 8.980469 1.027344 10.75 0.945312 12.527344 1.066406 C 16.007812 1.3125 19.523438 1.246094 23.007812 1.253906 C 24.558594 1.261719 26.394531 1.027344 27.792969 1.839844 C 29.039062 2.5625 30.0625 3.933594 30.15625 5.433594 C 30.332031 8.230469 30.238281 11.054688 30.25 13.855469 C 30.25 14.277344 30.238281 14.699219 30.238281 15.121094 C 30.230469 16.535156 30.359375 17.960938 30.332031 19.371094 Z M 30.332031 19.371094 "/>
<path style=" stroke:none;fill-rule:nonzero;fill:rgb(0%,0%,0%);fill-opacity:1;" d="M 24.011719 4.402344 C 23.1875 4.429688 22.359375 4.453125 21.535156 4.4375 C 20.582031 4.421875 19.625 4.441406 18.675781 4.320312 C 17.617188 4.179688 16.574219 4.105469 15.503906 4.15625 C 14.050781 4.222656 12.636719 4.363281 11.179688 4.285156 C 10.535156 4.253906 9.894531 4.21875 9.25 4.183594 C 8.917969 4.164062 8.585938 4.144531 8.253906 4.128906 C 7.550781 4.089844 7.707031 5.199219 7.6875 5.652344 C 7.625 6.914062 7.726562 8.164062 7.710938 9.421875 C 7.695312 10.613281 7.628906 11.800781 7.574219 12.988281 C 7.507812 14.371094 7.382812 15.789062 7.503906 17.171875 C 7.628906 18.601562 7.496094 19.964844 7.390625 21.390625 C 7.269531 23.089844 7.3125 24.804688 7.347656 26.507812 C 7.359375 27.011719 7.289062 27.625 7.40625 28.109375 C 7.429688 28.730469 9.210938 28.429688 9.644531 28.425781 C 11.058594 28.410156 12.480469 28.4375 13.898438 28.484375 C 15 28.523438 16.101562 28.558594 17.203125 28.628906 C 17.789062 28.667969 18.199219 28.050781 18.605469 27.667969 C 18.882812 27.40625 19.160156 27.144531 19.441406 26.878906 C 20.234375 26.128906 21.019531 25.359375 21.808594 24.597656 C 22.453125 23.980469 23.097656 23.359375 23.738281 22.738281 C 24.035156 22.453125 24.730469 22.007812 24.84375 21.570312 C 24.960938 21.136719 24.839844 20.589844 24.835938 20.132812 C 24.835938 19.675781 24.832031 19.222656 24.828125 18.765625 C 24.824219 17.988281 24.835938 17.214844 24.851562 16.4375 C 24.875 15.023438 24.878906 13.613281 24.863281 12.199219 C 24.835938 9.769531 25.152344 7.355469 25.148438 4.925781 C 25.191406 4.246094 24.429688 4.386719 24.011719 4.402344 Z M 22.25 22.761719 C 20.777344 24.292969 19.335938 25.871094 17.800781 27.335938 C 17.894531 25.570312 18.046875 23.785156 18.035156 22.019531 C 18.035156 21.855469 17.984375 21.792969 18.140625 21.792969 C 18.332031 21.789062 18.519531 21.789062 18.710938 21.789062 C 19.019531 21.785156 19.328125 21.78125 19.640625 21.78125 C 20.023438 21.777344 20.40625 21.792969 20.789062 21.820312 C 21.589844 21.875 22.394531 21.703125 23.199219 21.773438 C 22.882812 22.101562 22.566406 22.429688 22.25 22.761719 Z M 24.066406 7.023438 C 24.023438 8.242188 23.847656 9.460938 23.835938 10.675781 C 23.820312 11.78125 23.980469 12.878906 24.003906 13.980469 C 24.027344 15.085938 23.914062 16.179688 23.878906 17.28125 C 23.835938 18.5 23.808594 19.722656 23.824219 20.941406 C 23.378906 20.875 22.929688 20.945312 22.480469 20.9375 C 21.929688 20.933594 21.382812 20.917969 20.835938 20.90625 C 20.285156 20.886719 19.738281 20.898438 19.1875 20.90625 C 18.769531 20.914062 17.632812 20.902344 17.511719 20.9375 C 17.074219 21.070312 17.199219 21.523438 17.195312 21.914062 C 17.1875 22.988281 17.046875 24.046875 17.050781 25.121094 C 17.054688 26.011719 17.058594 26.898438 17.0625 27.789062 C 16.78125 27.75 16.5 27.722656 16.214844 27.691406 C 14.820312 27.535156 13.414062 27.441406 12.011719 27.371094 C 11.296875 27.335938 10.578125 27.308594 9.859375 27.296875 C 9.609375 27.292969 8.464844 27.371094 8.457031 27.246094 C 8.441406 26.960938 8.425781 26.675781 8.417969 26.390625 C 8.359375 24.441406 8.371094 22.488281 8.488281 20.542969 C 8.59375 18.773438 8.300781 17.066406 8.320312 15.300781 C 8.335938 13.484375 8.425781 11.671875 8.507812 9.859375 C 8.578125 8.285156 8.722656 6.734375 8.738281 5.160156 C 10.390625 5.207031 12.085938 5.550781 13.742188 5.382812 C 15.335938 5.222656 16.910156 5.074219 18.515625 5.171875 C 20.097656 5.265625 21.675781 5.328125 23.257812 5.398438 C 23.519531 5.410156 23.785156 5.421875 24.046875 5.433594 C 24.148438 5.4375 24.070312 6.851562 24.066406 7.023438 Z M 24.066406 7.023438 "/>
<path style=" stroke:none;fill-rule:nonzero;fill:rgb(0%,0%,0%);fill-opacity:1;" d="M 20.742188 13.886719 C 20.296875 13.867188 19.851562 13.871094 19.40625 13.867188 C 18.355469 13.859375 17.300781 13.972656 16.25 13.929688 C 14.628906 13.886719 13.003906 13.726562 11.382812 13.722656 C 11.152344 13.71875 10.921875 13.769531 10.839844 14.03125 C 10.746094 14.324219 10.96875 14.617188 11.265625 14.617188 C 11.933594 14.617188 12.605469 14.667969 13.273438 14.691406 C 15.015625 14.761719 16.75 14.820312 18.496094 14.789062 C 19.269531 14.773438 20.046875 14.785156 20.820312 14.789062 C 20.953125 14.789062 21.089844 14.800781 21.21875 14.792969 C 21.570312 14.792969 21.777344 14.363281 21.5625 14.078125 C 21.382812 13.839844 20.996094 13.894531 20.742188 13.886719 Z M 20.742188 13.886719 "/>
<path style=" stroke:none;fill-rule:nonzero;fill:rgb(0%,0%,0%);fill-opacity:1;" d="M 21.191406 16.175781 C 19.824219 16.195312 18.453125 16.1875 17.085938 16.1875 C 15.371094 16.1875 13.65625 16.027344 11.941406 15.996094 C 11.582031 15.988281 10.574219 15.871094 10.800781 16.582031 C 10.945312 17.023438 11.640625 16.890625 11.980469 16.894531 C 12.808594 16.910156 13.636719 16.929688 14.464844 16.953125 C 15.285156 16.976562 16.101562 17.117188 16.917969 17.113281 C 18.046875 17.109375 19.171875 17.125 20.300781 17.089844 C 20.617188 17.078125 20.976562 17.121094 21.289062 17.050781 C 21.785156 16.945312 21.699219 16.167969 21.191406 16.175781 Z M 21.191406 16.175781 "/>
<path style=" stroke:none;fill-rule:nonzero;fill:rgb(0%,0%,0%);fill-opacity:1;" d="M 21.203125 18.453125 C 20.542969 18.382812 19.894531 18.378906 19.230469 18.402344 C 18.382812 18.4375 17.535156 18.378906 16.6875 18.417969 C 15.039062 18.496094 13.410156 18.3125 11.765625 18.265625 C 11.539062 18.261719 11.25 18.210938 11.03125 18.285156 C 10.730469 18.390625 10.640625 18.796875 10.867188 19.027344 C 11.0625 19.230469 11.421875 19.15625 11.671875 19.164062 C 12.054688 19.171875 12.4375 19.1875 12.820312 19.207031 C 14.507812 19.300781 16.195312 19.375 17.886719 19.289062 C 18.363281 19.261719 18.832031 19.203125 19.308594 19.222656 C 19.730469 19.238281 20.152344 19.277344 20.574219 19.300781 C 20.816406 19.3125 21.195312 19.40625 21.410156 19.25 C 21.726562 19.015625 21.585938 18.492188 21.203125 18.453125 Z M 21.203125 18.453125 "/>
<path style=" stroke:none;fill-rule:nonzero;fill:rgb(0%,0%,0%);fill-opacity:1;" d="M 10.765625 11.890625 C 10.753906 12.230469 11.070312 12.242188 11.316406 12.242188 C 11.789062 12.242188 12.257812 12.25 12.730469 12.253906 C 13.203125 12.253906 13.667969 12.304688 14.140625 12.351562 C 14.609375 12.402344 15.078125 12.414062 15.550781 12.414062 C 15.855469 12.414062 16.421875 12.53125 16.640625 12.265625 C 16.777344 12.097656 16.738281 11.828125 16.742188 11.625 C 16.742188 11.25 16.742188 10.875 16.742188 10.5 C 16.746094 9.617188 16.75 8.730469 16.75 7.84375 C 16.75 7.652344 16.75 7.460938 16.753906 7.269531 C 16.753906 7.046875 16.609375 6.90625 16.410156 6.855469 C 15.941406 6.78125 15.476562 6.730469 15 6.75 C 14.09375 6.785156 13.1875 6.761719 12.285156 6.746094 C 12.066406 6.742188 11.847656 6.734375 11.632812 6.730469 C 11.449219 6.726562 11.222656 6.683594 11.046875 6.746094 C 10.667969 6.882812 10.75 7.375 10.746094 7.695312 C 10.726562 9.09375 10.753906 10.492188 10.765625 11.890625 Z M 11.609375 7.964844 C 11.613281 7.878906 11.621094 7.792969 11.625 7.707031 C 11.628906 7.59375 11.746094 7.648438 11.835938 7.644531 C 12.050781 7.640625 12.269531 7.640625 12.488281 7.628906 C 13.285156 7.605469 14.082031 7.558594 14.878906 7.605469 C 15.265625 7.628906 15.652344 7.644531 16.039062 7.648438 C 15.988281 8.832031 15.941406 10.015625 15.890625 11.199219 C 15.886719 11.28125 15.882812 11.359375 15.878906 11.441406 C 15.875 11.574219 15.648438 11.484375 15.558594 11.484375 C 14.917969 11.457031 14.277344 11.429688 13.636719 11.410156 C 12.960938 11.386719 12.28125 11.386719 11.601562 11.386719 L 11.601562 9.542969 C 11.601562 9.210938 11.601562 8.882812 11.601562 8.554688 C 11.601562 8.355469 11.605469 8.160156 11.609375 7.964844 Z M 11.609375 7.964844 "/>
</g>
</svg>
