<?xml version="1.0" encoding="UTF-8"?>
<svg xmlns="http://www.w3.org/2000/svg" xmlns:xlink="http://www.w3.org/1999/xlink" width="263px" height="256px" viewBox="0 0 262 256" version="1.1">
<g id="surface1">
<path style=" stroke:none;fill-rule:nonzero;fill:rgb(76.862745%,91.372549%,98.039216%);fill-opacity:1;" d="M 251.859375 70.335938 C 249.5 58.238281 237.699219 41.234375 236.847656 39.832031 C 217.085938 7.304688 173.785156 16.132812 133.476562 16.132812 C 99.546875 16.132812 59.242188 16.492188 40.917969 28.96875 C 15.285156 46.417969 15.652344 71.6875 13.871094 101.574219 C 11.839844 135.605469 13.433594 189.90625 35.023438 217.863281 C 53.578125 241.890625 80.789062 243.800781 109.46875 244.410156 C 126.507812 244.777344 148.332031 245.238281 165.335938 245.238281 C 185.023438 245.238281 203.792969 249.410156 221.566406 231.335938 C 242.160156 210.394531 239.71875 190.898438 243.863281 135.257812 C 245.46875 113.699219 255.992188 91.523438 251.859375 70.335938 Z M 251.859375 70.335938 "/>
<path style=" stroke:none;fill-rule:nonzero;fill:rgb(100%,100%,100%);fill-opacity:1;" d="M 201.550781 39.316406 C 201.550781 39.316406 149.160156 28.46875 131.695312 28.152344 C 115.59375 27.863281 71.8125 27.269531 62.335938 36.910156 C 51.273438 48.160156 57.707031 108.960938 57.261719 132.980469 C 56.835938 155.882812 63.804688 224.585938 63.804688 224.585938 L 142.539062 225.957031 L 199.109375 171.324219 C 199.109375 171.324219 206.476562 151.730469 206.933594 126.996094 C 207.085938 118.726562 201.550781 39.316406 201.550781 39.316406 Z M 201.550781 39.316406 "/>
<path style=" stroke:none;fill-rule:nonzero;fill:rgb(52.941176%,78.823529%,100%);fill-opacity:1;" d="M 140.273438 173.839844 C 131.152344 183.792969 142.539062 225.960938 142.539062 225.960938 L 190.867188 173.191406 C 190.871094 173.1875 149.390625 163.890625 140.273438 173.839844 Z M 140.273438 173.839844 "/>
<path style=" stroke:none;fill-rule:nonzero;fill:rgb(100%,33.72549%,0%);fill-opacity:1;" d="M 134.308594 59.6875 C 126.894531 51.996094 99.300781 51.558594 91.621094 58.988281 C 84.832031 65.558594 84.367188 90.011719 90.921875 96.816406 C 98.335938 104.511719 125.929688 104.949219 133.605469 97.519531 C 140.394531 90.949219 140.863281 66.492188 134.308594 59.6875 Z M 134.308594 59.6875 "/>
<path style=" stroke:none;fill-rule:nonzero;fill:rgb(0%,0%,0%);fill-opacity:1;" d="M 257.203125 110.839844 C 257.234375 106.398438 257.144531 101.953125 257.113281 97.507812 C 257.027344 84.621094 257.015625 71.726562 256.824219 58.839844 C 256.628906 45.582031 256.476562 33.089844 248.640625 21.777344 C 241.65625 11.695312 230.386719 3.75 218.109375 2.0625 C 204.671875 0.214844 190.429688 1.714844 176.902344 1.660156 C 147.492188 1.539062 118.097656 0.0585938 88.679688 0.703125 C 75.242188 1 61.84375 1.644531 48.425781 2.410156 C 36.6875 3.082031 25.417969 7.9375 17.117188 16.347656 C 7.226562 26.359375 5.355469 38.238281 4.75 51.714844 C 4.101562 66.261719 3.929688 80.875 4.019531 95.433594 C 4.15625 117.679688 4.890625 139.921875 5.375 162.160156 C 5.691406 176.808594 5.574219 191.453125 5.53125 206.105469 C 5.503906 214.976562 6.800781 223.125 11.308594 230.992188 C 17.703125 242.144531 29.082031 250.777344 41.667969 253.511719 C 52.183594 255.792969 63.703125 254.460938 74.34375 254.375 C 85 254.289062 95.574219 254.867188 106.214844 255.289062 C 120.46875 255.855469 134.6875 255.230469 148.921875 254.488281 C 163.617188 253.722656 178.25 253.945312 192.949219 254.121094 C 204.53125 254.261719 216.996094 254.898438 227.941406 250.441406 C 240.109375 245.492188 249.164062 234.976562 252.996094 222.460938 C 256.910156 209.679688 255.609375 194.898438 255.980469 181.664062 C 256.636719 158.070312 257.035156 134.449219 257.203125 110.839844 Z M 248.332031 154.960938 C 248.035156 168.441406 247.433594 181.910156 246.777344 195.378906 C 246.175781 207.753906 246.273438 220.28125 238.324219 230.546875 C 231.492188 239.375 221.3125 243.265625 210.414062 243.484375 C 182.183594 244.042969 153.9375 243.675781 125.707031 244.398438 C 101.234375 245.023438 76.402344 245.75 51.980469 244.316406 C 32.855469 243.191406 16.980469 227.503906 15.191406 208.324219 C 12.671875 181.277344 12.839844 154.0625 12.703125 126.917969 C 12.628906 112.257812 13.070312 97.757812 13.8125 83.101562 C 14.441406 70.660156 14.277344 58.15625 14.566406 45.699219 C 14.820312 34.707031 19.242188 25.097656 28.101562 18.351562 C 37.390625 11.277344 47.90625 10.550781 59.03125 9.539062 C 73.527344 8.226562 88.015625 7.550781 102.558594 8.546875 C 131.050781 10.496094 159.835938 9.960938 188.390625 10.046875 C 201.085938 10.085938 216.117188 8.207031 227.570312 14.71875 C 237.753906 20.511719 246.132812 31.484375 246.90625 43.457031 C 248.351562 65.828125 247.574219 88.441406 247.664062 110.855469 C 247.679688 114.226562 247.589844 117.597656 247.574219 120.96875 C 247.523438 132.292969 248.582031 143.671875 248.332031 154.960938 Z M 248.332031 154.960938 "/>
<path style=" stroke:none;fill-rule:nonzero;fill:rgb(0%,0%,0%);fill-opacity:1;" d="M 196.589844 35.207031 C 189.839844 35.445312 183.070312 35.609375 176.316406 35.503906 C 168.515625 35.378906 160.671875 35.53125 152.921875 34.550781 C 144.226562 33.453125 135.691406 32.851562 126.941406 33.242188 C 115.039062 33.777344 103.457031 34.894531 91.519531 34.289062 C 86.257812 34.023438 80.996094 33.746094 75.734375 33.464844 C 73.019531 33.316406 70.304688 33.167969 67.59375 33.023438 C 61.8125 32.707031 63.109375 41.609375 62.933594 45.210938 C 62.441406 55.296875 63.246094 65.304688 63.121094 75.386719 C 63 84.898438 62.46875 94.40625 62.003906 103.90625 C 61.464844 114.980469 60.433594 126.316406 61.4375 137.375 C 62.476562 148.816406 61.359375 159.722656 60.523438 171.113281 C 59.53125 184.714844 59.867188 198.445312 60.164062 212.070312 C 60.25 216.085938 59.671875 221.003906 60.644531 224.875 C 60.828125 229.832031 75.417969 227.425781 78.957031 227.390625 C 90.554688 227.273438 102.191406 227.492188 113.785156 227.875 C 122.808594 228.175781 131.832031 228.453125 140.84375 229.035156 C 145.660156 229.34375 149.019531 224.40625 152.328125 221.347656 C 154.605469 219.246094 156.882812 217.140625 159.160156 215.039062 C 165.679688 209.019531 172.085938 202.871094 178.546875 196.792969 C 183.820312 191.828125 189.097656 186.863281 194.371094 181.902344 C 196.800781 179.617188 202.476562 176.0625 203.421875 172.558594 C 204.351562 169.101562 203.382812 164.707031 203.359375 161.066406 C 203.335938 157.421875 203.3125 153.777344 203.289062 150.128906 C 203.25 143.917969 203.351562 137.714844 203.457031 131.507812 C 203.652344 120.191406 203.703125 108.898438 203.574219 97.582031 C 203.355469 78.164062 205.933594 58.855469 205.894531 39.394531 C 206.246094 33.96875 200.007812 35.082031 196.589844 35.207031 Z M 182.175781 182.078125 C 170.121094 194.347656 158.3125 206.960938 145.734375 218.691406 C 146.511719 204.554688 147.769531 190.296875 147.675781 176.144531 C 147.667969 174.859375 147.238281 174.34375 148.523438 174.332031 C 150.078125 174.320312 151.632812 174.308594 153.1875 174.296875 C 155.726562 174.28125 158.265625 174.261719 160.800781 174.238281 C 163.945312 174.214844 167.058594 174.347656 170.195312 174.5625 C 176.78125 175.011719 183.34375 173.640625 189.941406 174.199219 C 187.34375 176.820312 184.757812 179.449219 182.175781 182.078125 Z M 197.027344 56.195312 C 196.6875 65.949219 195.265625 75.671875 195.144531 85.414062 C 195.039062 94.257812 196.34375 103.019531 196.527344 111.851562 C 196.710938 120.6875 195.78125 129.429688 195.503906 138.246094 C 195.144531 147.984375 194.917969 157.785156 195.066406 167.535156 C 191.417969 166.984375 187.726562 167.554688 184.050781 167.515625 C 179.558594 167.476562 175.070312 167.347656 170.578125 167.238281 C 166.078125 167.101562 161.597656 167.179688 157.101562 167.261719 C 153.683594 167.324219 144.382812 167.21875 143.390625 167.507812 C 139.78125 168.570312 140.820312 172.175781 140.792969 175.308594 C 140.71875 183.902344 139.554688 192.367188 139.597656 200.984375 C 139.632812 208.089844 139.667969 215.199219 139.703125 222.308594 C 137.398438 222 135.078125 221.777344 132.769531 221.527344 C 121.335938 220.285156 109.835938 219.527344 98.355469 218.96875 C 92.484375 218.683594 86.601562 218.464844 80.730469 218.378906 C 78.667969 218.351562 69.292969 218.972656 69.242188 217.957031 C 69.121094 215.675781 68.988281 213.398438 68.917969 211.117188 C 68.433594 195.53125 68.546875 179.914062 69.503906 164.347656 C 70.375 150.199219 67.96875 136.523438 68.113281 122.414062 C 68.257812 107.882812 68.988281 93.378906 69.664062 78.859375 C 70.246094 66.289062 71.414062 53.863281 71.527344 41.277344 C 85.082031 41.664062 98.964844 44.402344 112.5 43.074219 C 125.570312 41.792969 138.460938 40.59375 151.613281 41.363281 C 164.539062 42.117188 177.480469 42.628906 190.417969 43.191406 C 192.574219 43.285156 194.730469 43.375 196.882812 43.46875 C 197.71875 43.503906 197.078125 54.808594 197.027344 56.195312 Z M 197.027344 56.195312 "/>
<path style=" stroke:none;fill-rule:nonzero;fill:rgb(0%,0%,0%);fill-opacity:1;" d="M 169.8125 111.078125 C 166.175781 110.953125 162.527344 110.984375 158.890625 110.949219 C 150.277344 110.871094 141.664062 111.78125 133.054688 111.425781 C 119.785156 111.097656 106.480469 109.820312 93.210938 109.78125 C 91.308594 109.75 89.421875 110.164062 88.746094 112.238281 C 87.984375 114.589844 89.816406 116.933594 92.230469 116.933594 C 97.703125 116.933594 103.199219 117.335938 108.667969 117.542969 C 122.933594 118.082031 137.15625 118.550781 151.433594 118.308594 C 157.78125 118.199219 164.132812 118.285156 170.480469 118.316406 C 171.546875 118.320312 172.65625 118.414062 173.722656 118.328125 C 176.609375 118.339844 178.304688 114.902344 176.53125 112.613281 C 175.0625 110.71875 171.910156 111.152344 169.8125 111.078125 Z M 169.8125 111.078125 "/>
<path style=" stroke:none;fill-rule:nonzero;fill:rgb(0%,0%,0%);fill-opacity:1;" d="M 173.511719 129.40625 C 162.304688 129.570312 151.089844 129.484375 139.886719 129.492188 C 125.855469 129.496094 111.824219 128.207031 97.785156 127.957031 C 94.832031 127.902344 86.582031 126.96875 88.445312 132.640625 C 89.617188 136.1875 95.304688 135.125 98.101562 135.167969 C 104.882812 135.277344 111.660156 135.441406 118.433594 135.628906 C 125.152344 135.8125 131.820312 136.945312 138.519531 136.917969 C 147.75 136.882812 156.984375 137.007812 166.210938 136.714844 C 168.8125 136.632812 171.738281 136.953125 174.300781 136.410156 C 178.355469 135.550781 177.65625 129.34375 173.511719 129.40625 Z M 173.511719 129.40625 "/>
<path style=" stroke:none;fill-rule:nonzero;fill:rgb(0%,0%,0%);fill-opacity:1;" d="M 173.585938 147.613281 C 168.1875 147.074219 162.875 147.027344 157.453125 147.226562 C 150.515625 147.484375 143.578125 147.03125 136.632812 147.34375 C 123.117188 147.957031 109.808594 146.503906 96.320312 146.136719 C 94.484375 146.085938 92.113281 145.675781 90.324219 146.289062 C 87.859375 147.136719 87.117188 150.386719 88.964844 152.222656 C 90.582031 153.832031 93.515625 153.246094 95.578125 153.296875 C 98.710938 153.375 101.832031 153.488281 104.960938 153.65625 C 118.792969 154.40625 132.59375 154.996094 146.445312 154.296875 C 150.335938 154.101562 154.199219 153.613281 158.105469 153.765625 C 161.554688 153.902344 165.003906 154.234375 168.453125 154.410156 C 170.433594 154.511719 173.535156 155.261719 175.296875 153.988281 C 177.871094 152.128906 176.746094 147.929688 173.585938 147.613281 Z M 173.585938 147.613281 "/>
<path style=" stroke:none;fill-rule:nonzero;fill:rgb(0%,0%,0%);fill-opacity:1;" d="M 88.140625 95.113281 C 88.050781 97.839844 90.652344 97.945312 92.65625 97.9375 C 96.511719 97.925781 100.363281 97.996094 104.21875 98.015625 C 108.09375 98.035156 111.914062 98.429688 115.769531 98.824219 C 119.617188 99.21875 123.457031 99.316406 127.324219 99.316406 C 129.8125 99.3125 134.445312 100.25 136.25 98.117188 C 137.378906 96.785156 137.058594 94.628906 137.0625 92.996094 C 137.070312 90 137.078125 87.007812 137.085938 84.011719 C 137.105469 76.925781 137.125 69.84375 137.144531 62.757812 C 137.152344 61.226562 137.15625 59.691406 137.160156 58.15625 C 137.164062 56.378906 135.976562 55.257812 134.359375 54.835938 C 130.515625 54.238281 126.703125 53.859375 122.808594 54 C 115.394531 54.269531 107.988281 54.105469 100.570312 53.957031 C 98.792969 53.921875 97.015625 53.886719 95.234375 53.847656 C 93.738281 53.816406 91.886719 53.46875 90.449219 53.972656 C 87.347656 55.050781 88.023438 59.007812 87.984375 61.566406 C 87.808594 72.742188 88.054688 83.9375 88.140625 95.113281 Z M 95.066406 63.707031 C 95.089844 63.019531 95.136719 62.335938 95.171875 61.648438 C 95.21875 60.75 96.167969 61.171875 96.898438 61.152344 C 98.675781 61.117188 100.457031 61.117188 102.234375 61.035156 C 108.761719 60.84375 115.28125 60.464844 121.808594 60.855469 C 124.980469 61.046875 128.140625 61.152344 131.316406 61.199219 C 130.910156 70.664062 130.503906 80.128906 130.097656 89.59375 C 130.070312 90.238281 130.042969 90.886719 130.015625 91.527344 C 129.972656 92.578125 128.132812 91.886719 127.375 91.859375 C 122.136719 91.660156 116.898438 91.429688 111.660156 91.265625 C 106.101562 91.09375 100.550781 91.082031 94.992188 91.085938 L 94.992188 76.339844 C 94.992188 73.703125 94.992188 71.0625 94.988281 68.425781 C 94.988281 66.851562 95.011719 65.28125 95.066406 63.707031 Z M 95.066406 63.707031 "/>
</g>
</svg>
