<svg width="32" height="32" viewBox="0 0 32 32" fill="none" xmlns="http://www.w3.org/2000/svg">
<rect x="0.5" y="0.5" width="31" height="31" rx="15.5" stroke="black"/>
<path d="M22.5876 22.5H9.41237C8.63315 22.4986 8.00128 21.8201 8 20.9833V11.0167C8.00129 10.1799 8.63316 9.50138 9.41237 9.5H22.5876C23.3669 9.50138 23.9987 10.1799 24 11.0167V20.9833C23.9987 21.8201 23.3668 22.4986 22.5876 22.5ZM9.80804 21.3944H22.192L17.6036 16.7594C16.2749 18.263 15.7221 18.2685 14.3966 16.7594L9.80804 21.3944ZM18.3544 16L22.97 20.6627L22.9706 11.3372C21.5183 12.8042 19.7488 14.5904 18.3545 15.9999L18.3544 16ZM9.02956 11.3374V20.6635L13.6456 16.0002C12.2487 14.5879 10.4818 12.8051 9.02956 11.3374ZM14.7666 15.6153C15.3038 16.1591 15.7047 16.5647 15.8527 16.7167C15.9383 16.8003 16.0702 16.7983 16.1532 16.7112C17.8609 14.9762 20.299 12.5198 22.192 10.6057H9.80804C11.3543 12.168 13.3587 14.1913 14.7666 15.6153Z" fill="black"/>
</svg>
