<svg width="130" height="25" viewBox="0 0 130 25" fill="none" xmlns="http://www.w3.org/2000/svg">
<g clip-path="url(#clip0_12_217)">
<path d="M6.89992 24.396C5.5245 24.396 4.3674 24.165 3.42862 23.703C2.51168 23.241 1.81305 22.636 1.33274 21.888C0.874271 21.118 0.645035 20.282 0.645035 19.38C0.645035 17.774 1.24542 16.52 2.44618 15.618C3.64694 14.694 5.34984 14.232 7.55488 14.232H12.0086V13.935C12.0086 12.659 11.6593 11.702 10.9607 11.064C10.2839 10.426 9.43244 10.107 8.40633 10.107C7.51122 10.107 6.72526 10.349 6.04847 10.833C5.37168 11.295 4.94595 11.977 4.77129 12.879H1.3C1.43099 11.691 1.82397 10.679 2.47893 9.84301C3.15572 9.00701 4.00717 8.36901 5.03328 7.92901C6.08122 7.46701 7.20557 7.23601 8.40633 7.23601C9.73809 7.23601 10.8952 7.47801 11.8776 7.96201C12.8819 8.42401 13.6679 9.07301 14.2355 9.90901C14.956 9.07301 15.8292 8.42401 16.8553 7.96201C17.8814 7.47801 18.9949 7.23601 20.1956 7.23601C21.7457 7.23601 23.0993 7.58801 24.2564 8.29201C25.4353 8.99601 26.3414 9.94201 26.9745 11.13C27.6295 12.318 27.9569 13.627 27.9569 15.057C27.9569 15.277 27.9569 15.519 27.9569 15.783C27.9569 16.025 27.946 16.3 27.9242 16.608H15.5454C15.5891 17.686 15.8292 18.588 16.2659 19.314C16.7243 20.04 17.292 20.59 17.9688 20.964C18.6674 21.316 19.3988 21.492 20.1629 21.492C21.2327 21.492 22.106 21.217 22.7827 20.667C23.4595 20.117 23.9617 19.402 24.2892 18.522H27.695C27.4111 19.622 26.9308 20.623 26.254 21.525C25.5772 22.405 24.7149 23.109 23.6669 23.637C22.6408 24.143 21.4728 24.396 20.1629 24.396C18.7438 24.396 17.4448 24.077 16.2659 23.439C15.0869 22.779 14.1482 21.888 13.4495 20.766C12.7946 21.8 11.9322 22.669 10.8624 23.373C9.8145 24.055 8.49366 24.396 6.89992 24.396ZM15.6109 14.199H24.4856C24.4202 12.923 23.9726 11.922 23.143 11.196C22.3352 10.47 21.3527 10.107 20.1956 10.107C19.0822 10.107 18.0779 10.459 17.1828 11.163C16.3095 11.845 15.7856 12.857 15.6109 14.199ZM7.2929 21.558C8.12252 21.558 8.86481 21.36 9.51977 20.964C10.1747 20.546 10.7096 19.996 11.1244 19.314C11.5392 18.632 11.8012 17.895 11.9104 17.103V16.608H7.94786C6.63794 16.608 5.69916 16.839 5.13152 17.301C4.56389 17.763 4.28007 18.357 4.28007 19.083C4.28007 19.831 4.55297 20.436 5.09878 20.898C5.64458 21.338 6.37595 21.558 7.2929 21.558ZM28.9314 24V0.240005H32.4027V24H28.9314ZM43.3155 24.396C42.0492 24.396 40.9249 24.143 39.9424 23.637C38.9818 23.131 38.2177 22.416 37.6501 21.492L37.2898 24H34.1788V0.240005H37.6501V10.173C38.174 9.40301 38.8945 8.72101 39.8115 8.12701C40.7284 7.53301 41.9073 7.23601 43.3483 7.23601C44.9202 7.23601 46.3065 7.61001 47.5073 8.35801C48.708 9.10601 49.6468 10.129 50.3236 11.427C51.0222 12.725 51.3715 14.199 51.3715 15.849C51.3715 17.499 51.0222 18.973 50.3236 20.271C49.6468 21.547 48.708 22.559 47.5073 23.307C46.3065 24.033 44.9092 24.396 43.3155 24.396ZM42.726 21.36C44.2106 21.36 45.4332 20.854 46.3938 19.842C47.3544 18.808 47.8347 17.466 47.8347 15.816C47.8347 14.738 47.6164 13.781 47.1798 12.945C46.7431 12.109 46.1427 11.46 45.3786 10.998C44.6145 10.514 43.7303 10.272 42.726 10.272C41.2415 10.272 40.0189 10.789 39.0582 11.823C38.1195 12.857 37.6501 14.188 37.6501 15.816C37.6501 17.466 38.1195 18.808 39.0582 19.842C40.0189 20.854 41.2415 21.36 42.726 21.36ZM59.5798 24.396C57.986 24.396 56.5997 24.044 55.4208 23.34C54.2419 22.614 53.3249 21.657 52.6699 20.469C52.0368 19.281 51.7202 17.972 51.7202 16.542C51.7202 16.322 51.7202 16.091 51.7202 15.849C51.7202 15.585 51.7312 15.299 51.753 14.991H64.3938C64.3064 13.407 63.7934 12.208 62.8546 11.394C61.9377 10.558 60.8679 10.14 59.6453 10.14C58.6628 10.14 57.8332 10.371 57.1564 10.833C56.4796 11.273 55.9884 11.878 55.6828 12.648H52.1787C52.6154 11.108 53.4777 9.82101 54.7658 8.78701C56.0757 7.75301 57.6913 7.23601 59.6125 7.23601C61.2281 7.23601 62.6472 7.59901 63.8698 8.32501C65.1142 9.02901 66.0857 10.019 66.7844 11.295C67.483 12.571 67.8323 14.056 67.8323 15.75C67.8323 17.466 67.483 18.973 66.7844 20.271C66.1076 21.569 65.147 22.581 63.9025 23.307C62.6581 24.033 61.2172 24.396 59.5798 24.396ZM59.6125 21.525C60.7915 21.525 61.8285 21.184 62.7236 20.502C63.6187 19.798 64.1645 18.753 64.361 17.367H55.1915C55.257 18.643 55.7046 19.655 56.5342 20.403C57.3638 21.151 58.3899 21.525 59.6125 21.525ZM75.1828 24C73.589 24 72.3228 23.615 71.384 22.845C70.4452 22.053 69.9758 20.656 69.9758 18.654V10.569H67.1922V7.63201H69.9758L70.4015 3.47401H73.4471V7.63201H78.0319V10.569H73.4471V18.654C73.4471 19.556 73.6327 20.183 74.0038 20.535C74.3968 20.865 75.0627 21.03 76.0015 21.03H77.8681V24H75.1828ZM80.3667 24.198C79.7117 24.198 79.1659 23.989 78.7293 23.571C78.3145 23.131 78.1071 22.614 78.1071 22.02C78.1071 21.404 78.3145 20.887 78.7293 20.469C79.1659 20.029 79.7117 19.809 80.3667 19.809C81.0217 19.809 81.5565 20.029 81.9713 20.469C82.3862 20.887 82.5936 21.404 82.5936 22.02C82.5936 22.614 82.3862 23.131 81.9713 23.571C81.5565 23.989 81.0217 24.198 80.3667 24.198ZM94.4004 24.312C93.2995 24.312 92.3535 24.0607 91.5623 23.558C90.7882 23.038 90.1948 22.3447 89.782 21.478C89.3691 20.6113 89.1627 19.658 89.1627 18.618C89.1627 17.0927 89.4809 15.7493 90.1174 14.588C90.771 13.4093 91.6482 12.482 92.7491 11.806C93.85 11.13 95.0798 10.792 96.4388 10.792C97.574 10.792 98.5029 11.0173 99.2253 11.468C99.9482 11.9187 100.481 12.5167 100.825 13.262L102.219 5.28001H104.386L101.109 24H99.1221L99.3031 21.868C98.8039 22.492 98.1588 23.0553 97.3676 23.558C96.5763 24.0607 95.5873 24.312 94.4004 24.312ZM95.0197 22.414C96.0001 22.414 96.8688 22.1453 97.6256 21.608C98.3997 21.0707 99.0016 20.3513 99.4321 19.45C99.8787 18.5313 100.103 17.526 100.103 16.434C100.103 15.3073 99.7844 14.406 99.1479 13.73C98.5114 13.0367 97.6342 12.69 96.5162 12.69C95.5357 12.69 94.6585 12.9413 93.8844 13.444C93.1104 13.9467 92.4997 14.6313 92.0525 15.498C91.6224 16.3473 91.4075 17.318 91.4075 18.41C91.4075 19.554 91.7256 20.5073 92.3621 21.27C93.0157 22.0327 93.9016 22.414 95.0197 22.414ZM108.827 24.312C107.244 24.312 105.971 23.818 105.008 22.83C104.062 21.842 103.589 20.516 103.589 18.852C103.589 17.3613 103.916 16.0093 104.57 14.796C105.223 13.5653 106.118 12.5947 107.253 11.884C108.405 11.156 109.712 10.792 111.175 10.792C112.292 10.792 113.23 11.0173 113.987 11.468C114.761 11.9013 115.337 12.4907 115.716 13.236C116.111 13.9813 116.309 14.8047 116.309 15.706C116.309 16.0527 116.266 16.4513 116.18 16.902C116.111 17.3353 116.042 17.7167 115.974 18.046H105.756C105.722 18.3407 105.705 18.6007 105.705 18.826C105.705 20.0567 106.048 20.9753 106.737 21.582C107.425 22.1713 108.233 22.466 109.162 22.466C110.056 22.466 110.839 22.258 111.51 21.842C112.198 21.4087 112.731 20.8453 113.11 20.152H115.251C114.718 21.348 113.892 22.3447 112.774 23.142C111.656 23.922 110.34 24.312 108.827 24.312ZM110.891 12.638C109.859 12.638 108.886 12.9587 107.975 13.6C107.063 14.224 106.435 15.1427 106.092 16.356H114.142C114.159 16.252 114.168 16.1567 114.168 16.07C114.185 15.966 114.194 15.8707 114.194 15.784C114.194 14.796 113.892 14.0247 113.291 13.47C112.688 12.9153 111.888 12.638 110.891 12.638ZM119.353 24L116.566 11.104H118.811L121.004 21.92L126.939 11.104H129.235L121.907 24H119.353Z" fill="black"/>
</g>
<defs>
<clipPath id="clip0_12_217">
<rect width="130" height="25" fill="white"/>
</clipPath>
</defs>
</svg>
