<svg width="32" height="32" viewBox="0 0 32 32" fill="none" xmlns="http://www.w3.org/2000/svg">
<rect x="0.5" y="0.5" width="31" height="31" rx="15.5" stroke="black"/>
<path d="M18.3196 13.2273V14.9176H12.8381V13.2273H18.3196ZM14.2085 22.5V12.3519C14.2085 11.7281 14.3372 11.2089 14.5948 10.7944C14.8564 10.3799 15.2066 10.07 15.6452 9.8647C16.0839 9.65945 16.5709 9.55682 17.1062 9.55682C17.4845 9.55682 17.8205 9.587 18.1143 9.64737C18.4081 9.70774 18.6255 9.76207 18.7663 9.81037L18.3317 11.5007C18.2391 11.4725 18.1224 11.4444 17.9815 11.4162C17.8407 11.384 17.6837 11.3679 17.5107 11.3679C17.1042 11.3679 16.8164 11.4665 16.6474 11.6637C16.4824 11.8569 16.3999 12.1346 16.3999 12.4968V22.5H14.2085Z" fill="black"/>
</svg>
