<svg width="32" height="32" viewBox="0 0 32 32" fill="none" xmlns="http://www.w3.org/2000/svg">
<rect x="0.5" y="0.5" width="31" height="31" rx="15.5" stroke="black"/>
<path d="M20.6667 8H11.3333C9.49333 8 8 9.49333 8 11.3333V20.6667C8 22.5067 9.49333 24 11.3333 24H20.6667C22.5067 24 24 22.5067 24 20.6667V11.3333C24 9.49333 22.5067 8 20.6667 8ZM22.6667 20.6667C22.6667 21.7667 21.7667 22.6667 20.6667 22.6667H11.3333C10.2333 22.6667 9.33333 21.7667 9.33333 20.6667V11.3333C9.33333 10.2333 10.2333 9.33333 11.3333 9.33333H20.6667C21.7667 9.33333 22.6667 10.2333 22.6667 11.3333V20.6667Z" fill="black"/>
<path d="M16 11.3335C13.4266 11.3335 11.3333 13.4268 11.3333 16.0002C11.3333 18.5735 13.4266 20.6668 16 20.6668C18.5733 20.6668 20.6666 18.5735 20.6666 16.0002C20.6666 13.4268 18.5733 11.3335 16 11.3335ZM16 19.3335C14.16 19.3335 12.6666 17.8402 12.6666 16.0002C12.6666 14.1602 14.16 12.6668 16 12.6668C17.84 12.6668 19.3333 14.1602 19.3333 16.0002C19.3333 17.8402 17.84 19.3335 16 19.3335Z" fill="black"/>
<path d="M20.6666 12.0003C21.0348 12.0003 21.3333 11.7018 21.3333 11.3337C21.3333 10.9655 21.0348 10.667 20.6666 10.667C20.2984 10.667 19.9999 10.9655 19.9999 11.3337C19.9999 11.7018 20.2984 12.0003 20.6666 12.0003Z" fill="black"/>
</svg>
