<svg width="32" height="32" viewBox="0 0 32 32" fill="none" xmlns="http://www.w3.org/2000/svg">
<rect x="0.5" y="0.5" width="31" height="31" rx="15.5" stroke="black"/>
<path d="M9.62287 21.5V12.2273H11.8082V21.5H9.62287ZM10.7216 10.9112C10.3755 10.9112 10.0777 10.7965 9.82812 10.5671C9.5786 10.3337 9.45384 10.054 9.45384 9.72798C9.45384 9.39796 9.5786 9.11825 9.82812 8.88885C10.0777 8.65542 10.3755 8.53871 10.7216 8.53871C11.0717 8.53871 11.3696 8.65542 11.6151 8.88885C11.8646 9.11825 11.9893 9.39796 11.9893 9.72798C11.9893 10.054 11.8646 10.3337 11.6151 10.5671C11.3696 10.7965 11.0717 10.9112 10.7216 10.9112ZM16.2409 16.0668V21.5H14.0555V12.2273H16.1443V13.8029H16.2529C16.4662 13.2837 16.8063 12.8712 17.2732 12.5653C17.7441 12.2595 18.3256 12.1065 19.0178 12.1065C19.6578 12.1065 20.2152 12.2434 20.6901 12.517C21.169 12.7907 21.5393 13.1871 21.8009 13.7063C22.0665 14.2255 22.1973 14.8554 22.1933 15.5959V21.5H20.0079V15.9339C20.0079 15.3142 19.8469 14.8292 19.5249 14.479C19.207 14.1289 18.7663 13.9538 18.2029 13.9538C17.8205 13.9538 17.4804 14.0384 17.1826 14.2074C16.8888 14.3724 16.6574 14.6119 16.4884 14.9258C16.3234 15.2397 16.2409 15.62 16.2409 16.0668Z" fill="black"/>
</svg>
